<svg id="Layer_1" data-name="Layer 1" xmlns="http://www.w3.org/2000/svg" viewBox="0 0 233.7 270.97"><defs><style>.cls-1{fill:#d20203;}</style></defs><title>gb_icon</title><path class="cls-1" d="M355,453c-6.12-3.41-8.15-8.53-8.1-15.56.27-37.14.07-74.29.23-111.43,0-3.57-1.1-4.73-4.43-5.58-24.78-6.33-49.49-12.9-74.23-19.38-10.9-2.85-14-12.72-6.09-20.85,13.57-14,27.39-27.73,41.29-41.39,5.61-5.51,12.64-5.35,18.22.17,14.45,14.29,28.75,28.72,43.17,43,3.69,3.67,4.94,8.06,4.89,13.12-.11,9.86,0,9.86,10.11,11.39,0-3,0-6,0-9,0-34,0-68-.13-101.94,0-6.43,2.9-10.51,8.06-13.56h7c6.14,3.4,8.14,8.53,8.09,15.55-.26,38.3-.12,76.6-.12,115.37q17.11,4.5,34.1,9c14.62,3.83,29.15,8,43.89,11.31,10.6,2.36,14.62,13.76,6.12,21.95-13.55,13.06-26.62,26.62-40,39.88-6.61,6.56-13.3,6.4-20-.29-13.22-13.17-26.25-26.52-39.67-39.47-5.33-5.14-8.11-10.76-7.36-18.14.22-2.13,0-4.29,0-6.74l-10.16-2.69c0,1.88,0,3.32,0,4.77,0,35.64,0,71.29.13,106.93,0,6.43-2.89,10.51-8.06,13.55ZM457.28,350.41l-54.51-14.08,34.5,34.4ZM292.41,284.06,346.18,298l-34.07-34Z" transform="translate(-257.96 -182)"/></svg>