<svg id="Layer_1" data-name="Layer 1" xmlns="http://www.w3.org/2000/svg" viewBox="0 0 399.87 399.93"><defs><style>.cls-1{fill:#d00101;}</style></defs><title>gb_icon</title><path class="cls-1" d="M484,585q0-199.93,0-399.93H883.87q0,199.9,0,399.93Zm20.21-19.24H642c0-1,0-1.83,0-2.62q-.06-82.24-.13-164.49c0-7.75,0-7.69-7.36-9.6q-53.38-13.92-106.74-27.93c-11-2.89-14.26-13.28-6.37-21.34,19.47-19.88,39.21-39.51,59-59.07,5.33-5.27,13.1-5.07,18.44.22,20.59,20.41,41.21,40.82,61.44,61.58C663,345.29,664.49,350,665,354c.78,6.05.2,12.28.2,18.9l38.3,10V206.21H504.22Zm161,0H863.74V206.33H727.11c0,17.64,0,34.95,0,52.25,0,42,.06,84-.06,126,0,3.69,1.16,5.49,4.7,6.28,5.35,1.2,10.64,2.68,16,4.07q47.07,12.35,94.14,24.68a12.21,12.21,0,0,1,8.94,7.78c2.59,6.25-.31,10.62-4.31,14.64q-27.84,28-55.81,55.89c-7.72,7.71-14.63,7.67-22.39-.08-18.64-18.59-37.07-37.4-56-55.68-6.29-6.07-9.42-12.52-8.54-21.2.42-4.11,1.47-9.39-.52-12.16s-7.37-2.81-11.28-4.06c-.95-.3-1.89-.65-2.85-.89-7.8-2-15.61-4-23.82-6.11Zm150.91-129-88.47-22.91c-1.54,6-.09,10.3,4.09,14.36,14.79,14.39,29.29,29.08,43.9,43.64,1,1,2.08,1.95,3.35,3.14ZM641.33,366.71c1.67-6.27,0-10.92-4.73-14.95-4.42-3.78-8.33-8.15-12.45-12.28q-16.85-16.93-33.64-33.83l-37.27,38.21Z" transform="translate(-484 -185.07)"/></svg>